# xmcd
#
# Track frame offsets: 
#        150
#        19502
#        40674
#        62145
#        84537
#        109930
#        132527
#        148397
#        166937
#        200244
#
# Disc length: 2903 seconds
#
# Revision: 0
# Processed by: cddbd v1.5.2PL0 Copyright (c) Steve Scherf et al.
# Submitted via: ExactAudioCopy v1.0b3
#
DISCID=920b550a
DTITLE=Bảo Yến - Biển tím
DYEAR=1997
DGENRE=
TTITLE0=Bai Ca Tet Cho Em
TTITLE1=Huong Tham
TTITLE2=Me Go Cong
TTITLE3=Chieu Ha Vang
TTITLE4=Mot Som Con Ve
TTITLE5=Chuyen Tinh Hoa Muong Bien
TTITLE6=Phut Ban Dau
TTITLE7=Thuong Mot Nguoi O Xa
TTITLE8=Hue Tinh Yeu Cua Toi
TTITLE9=Bien Tim
EXTD=
EXTT0=
EXTT1=
EXTT2=
EXTT3=
EXTT4=
EXTT5=
EXTT6=
EXTT7=
EXTT8=
EXTT9=
PLAYORDER=
